<svg width="1265" height="1209" viewBox="0 0 1265 1209" fill="none" xmlns="http://www.w3.org/2000/svg">
<path d="M1240.07 312.886H918.217C914.937 312.886 912.296 314.206 910.336 316.167L909.016 319.449C872.169 392.528 836.603 458.363 802.397 516.313C798.436 522.917 793.195 526.198 785.954 526.198H575.997C567.435 526.839 566.115 522.917 572.036 514.352C617.444 445.876 663.532 380.722 710.901 318.809C713.541 314.847 711.541 312.205 706.3 312.886H365.359C362.079 312.886 359.438 314.206 357.478 316.167L356.158 319.449C276.503 476.812 191.608 620.328 100.792 751.358C68.5464 796.782 36.3007 840.885 3.37483 883.027C-3.22634 890.912 0.094246 895.514 11.2562 896.194H337.074C343.675 896.194 348.916 893.553 352.877 886.99C405.526 786.937 453.575 701.331 497.023 631.534C500.983 626.252 506.904 623.65 515.466 624.29H728.064C734.665 623.65 735.945 626.252 733.344 630.894C676.734 720.421 617.484 804.706 556.273 883.068C549.672 890.952 552.992 895.554 564.154 896.234H889.972C896.574 896.234 901.814 893.593 905.775 887.03C910.376 879.145 914.337 870.581 918.938 862.657C970.947 763.884 1024.92 670.395 1080.85 582.869C1132.86 499.905 1186.14 422.224 1240.79 349.145C1248.04 339.26 1255.92 329.414 1263.84 318.849C1266.48 314.887 1264.48 312.245 1259.24 312.926H1240.15L1240.07 312.886Z" fill="white"/>
<path d="M150.641 896.194C98.9118 811.029 69.1465 711.176 69.1465 604.48C69.1465 293.755 321.831 40.9817 632.447 40.9817C800.997 40.9817 952.383 115.541 1055.72 233.284H1108.85C998.152 91.4484 825.841 0 632.447 0C299.267 0 28.1792 271.184 28.1792 604.48C28.1792 710.216 55.5441 809.629 103.393 896.194H150.641Z" fill="white"/>
<path d="M1161.5 312.806H1114.25C1165.94 397.971 1195.75 497.824 1195.75 604.52C1195.75 915.245 943.022 1168.02 632.447 1168.02C463.897 1168.02 312.51 1093.5 209.171 975.757H156.042C266.742 1117.55 439.052 1209 632.407 1209C965.626 1209 1236.67 937.816 1236.67 604.52C1236.67 498.784 1209.31 399.371 1161.46 312.806H1161.5Z" fill="white"/>
</svg>
